<?xml version="1.0" encoding="UTF-8" standalone="no"?>
<!-- Created with Inkscape (http://www.inkscape.org/) -->

<svg
   xmlns:dc="http://purl.org/dc/elements/1.1/"
   xmlns:cc="http://creativecommons.org/ns#"
   xmlns:rdf="http://www.w3.org/1999/02/22-rdf-syntax-ns#"
   xmlns:svg="http://www.w3.org/2000/svg"
   xmlns="http://www.w3.org/2000/svg"
   xmlns:sodipodi="http://sodipodi.sourceforge.net/DTD/sodipodi-0.dtd"
   xmlns:inkscape="http://www.inkscape.org/namespaces/inkscape"
   width="240"
   height="160"
   id="svg2"
   version="1.1"
   inkscape:version="0.48.2 r9819"
   sodipodi:docname="vectowcol-missile_l2.svg">
  <defs
     id="defs4">
    <inkscape:perspective
       sodipodi:type="inkscape:persp3d"
       inkscape:vp_x="0 : 526.18109 : 1"
       inkscape:vp_y="0 : 1000 : 0"
       inkscape:vp_z="744.09448 : 526.18109 : 1"
       inkscape:persp3d-origin="372.04724 : 350.78739 : 1"
       id="perspective10" />
  </defs>
  <sodipodi:namedview
     id="base"
     pagecolor="#484848"
     bordercolor="#000000"
     borderopacity="0.38823529"
     inkscape:pageopacity="1"
     inkscape:pageshadow="2"
     inkscape:zoom="1"
     inkscape:cx="50.822335"
     inkscape:cy="136.51633"
     inkscape:document-units="px"
     inkscape:current-layer="layer1"
     showgrid="false"
     inkscape:showpageshadow="false"
     showborder="true"
     inkscape:window-width="960"
     inkscape:window-height="1181"
     inkscape:window-x="0"
     inkscape:window-y="19"
     inkscape:window-maximized="0"
     showguides="true"
     inkscape:guide-bbox="true">
    <inkscape:grid
       type="xygrid"
       id="grid2816"
       empspacing="4"
       visible="true"
       enabled="true"
       snapvisiblegridlinesonly="true"
       color="#e8e8ff"
       opacity="0.07058824"
       empcolor="#a7e9d4"
       empopacity="0.21568627"
       spacingx="1px"
       spacingy="1px" />
  </sodipodi:namedview>
  <metadata
     id="metadata7">
    <rdf:RDF>
      <cc:Work
         rdf:about="">
        <dc:format>image/svg+xml</dc:format>
        <dc:type
           rdf:resource="http://purl.org/dc/dcmitype/StillImage" />
        <dc:title />
      </cc:Work>
    </rdf:RDF>
  </metadata>
  <g
     inkscape:label="Layer 1"
     inkscape:groupmode="layer"
     id="layer1"
     transform="translate(0,-892.36218)">
    <path
       style="fill:#ff2905;fill-opacity:1;fill-rule:nonzero;stroke:none"
       d="m 41.714286,948.36218 36.571428,0 c 0.949715,0 1.714286,0.76457 1.714286,1.71429 l 0,38.28571 c 0,0.94972 -7.050285,8 -8,8 l -24,0 c -0.949715,0 -8,-7.05028 -8,-8 l 0,-38.28571 c 0,-0.94972 0.764571,-1.71429 1.714286,-1.71429 z"
       id="rect3098"
       inkscape:connector-curvature="0"
       sodipodi:nodetypes="sssssssss" />
    <path
       style="fill:#114369;fill-opacity:1;fill-rule:nonzero;stroke:none"
       d="m 40,980.36218 -8,8 -8,40.00002 0,8 72,0 0,-8 -8,-40.00002 -8,-8 -12,0 -4,-4 -8,0 -4,4 z"
       id="rect3061"
       inkscape:connector-curvature="0"
       sodipodi:nodetypes="ccccccccccccc" />
    <rect
       style="fill:#114369;fill-opacity:1;fill-rule:nonzero;stroke:none"
       id="rect3959"
       width="12"
       height="16.000002"
       x="228"
       y="946.36218"
       ry="2" />
    <rect
       style="fill:#114369;fill-opacity:1;fill-rule:nonzero;stroke:none"
       id="rect3063"
       width="232"
       height="56"
       x="0"
       y="916.36218"
       ry="4" />
    <rect
       ry="2"
       y="926.36218"
       x="228"
       height="16.000002"
       width="12"
       id="rect4372"
       style="fill:#114369;fill-opacity:1;fill-rule:nonzero;stroke:none" />
    <rect
       style="fill:#ff2905;fill-opacity:1;fill-rule:nonzero;stroke:none"
       id="rect3074"
       width="232"
       height="24"
       x="0"
       y="932.36218" />
    <rect
       ry="2"
       y="950.36218"
       x="228"
       height="8.0000029"
       width="8"
       id="rect3980"
       style="fill:#ff2905;fill-opacity:1;fill-rule:nonzero;stroke:none" />
    <rect
       style="fill:#ff2905;fill-opacity:1;fill-rule:nonzero;stroke:none"
       id="rect4374"
       width="8"
       height="8.0000029"
       x="228"
       y="930.36218"
       ry="2" />
    <path
       style="fill:#00627b;fill-opacity:1;fill-rule:nonzero;stroke:none"
       d="M 224 24 L 224 26 L 224 78 L 224 80 L 230 80 C 231.108 80 232 79.108 232 78 L 232 26 C 232 24.892 231.108 24 230 24 L 224 24 z "
       transform="translate(0,892.36218)"
       id="rect3076" />
    <rect
       style="fill:#0081a2;fill-opacity:1;fill-rule:nonzero;stroke:none"
       id="rect3078"
       width="8"
       height="56"
       x="200"
       y="916.36218" />
    <rect
       y="916.36218"
       x="176"
       height="56"
       width="8"
       id="rect3080"
       style="fill:#0091b6;fill-opacity:1;fill-rule:nonzero;stroke:none" />
    <rect
       y="916.36218"
       x="152"
       height="56"
       width="8"
       id="rect3082"
       style="fill:#00a0c9;fill-opacity:1;fill-rule:nonzero;stroke:none" />
    <rect
       style="fill:#0091b6;fill-opacity:1;fill-rule:nonzero;stroke:none"
       id="rect3084"
       width="8"
       height="56"
       x="128"
       y="916.36218" />
    <rect
       style="fill:#0081a2;fill-opacity:1;fill-rule:nonzero;stroke:none"
       id="rect3086"
       width="8"
       height="56"
       x="104"
       y="916.36218" />
    <rect
       style="fill:#ff2905;fill-opacity:1;fill-rule:nonzero;stroke:none"
       id="rect3100"
       width="88"
       height="16"
       x="16"
       y="1036.3622"
       ry="2" />
    <path
       style="fill:#0091b6;fill-opacity:1;fill-rule:nonzero;stroke:none"
       d="m 60,982.70593 -4,1.65625 -1.65625,4 1.65625,4 4,1.65625 4,-1.65625 1.65625,-4 -1.65625,-4 z"
       id="rect3926"
       inkscape:connector-curvature="0"
       sodipodi:nodetypes="ccccccccc" />
    <path
       id="path3984"
       d="m 8,916.36218 0,2 0,52 0,2 -6,0 c -1.108,0 -2,-0.892 -2,-2 l 0,-52 c 0,-1.108 0.892,-2 2,-2 l 6,0 z"
       style="fill:#00627b;fill-opacity:1;fill-rule:nonzero;stroke:none"
       inkscape:connector-curvature="0" />
    <rect
       y="1032.3622"
       x="20"
       height="4"
       width="8"
       id="rect4003"
       style="fill:#00627b;fill-opacity:1;fill-rule:nonzero;stroke:none" />
    <rect
       style="fill:#0081a2;fill-opacity:1;fill-rule:nonzero;stroke:none"
       id="rect4005"
       width="8"
       height="4"
       x="32"
       y="1032.3622" />
    <rect
       y="1032.3622"
       x="44"
       height="4"
       width="8"
       id="rect4007"
       style="fill:#0091b6;fill-opacity:1;fill-rule:nonzero;stroke:none" />
    <rect
       style="fill:#00a0c9;fill-opacity:1;fill-rule:nonzero;stroke:none"
       id="rect4009"
       width="8"
       height="4"
       x="56"
       y="1032.3622" />
    <rect
       style="fill:#00627b;fill-opacity:1;fill-rule:nonzero;stroke:none"
       id="rect4011"
       width="8"
       height="4"
       x="-100"
       y="1032.3622"
       transform="scale(-1,1)" />
    <rect
       y="1032.3622"
       x="-88"
       height="4"
       width="8"
       id="rect4013"
       style="fill:#0081a2;fill-opacity:1;fill-rule:nonzero;stroke:none"
       transform="scale(-1,1)" />
    <rect
       style="fill:#0091b6;fill-opacity:1;fill-rule:nonzero;stroke:none"
       id="rect4015"
       width="8"
       height="4"
       x="-76"
       y="1032.3622"
       transform="scale(-1,1)" />
    <path
       style="fill:#ff2905;fill-opacity:1;fill-rule:nonzero;stroke:none"
       d="m 161,1019.3623 11,0 c 1.70776,0 1.12111,2 7,2 l 2,0 c 1,0 2,0 2,1 0,1 -1,1 -2,1 l -2,0 c -5.93203,0 -5.31871,2 -7,2 l -11,0 c -0.554,0 -1,-0.446 -1,-1 l 0,-4 c 0,-0.554 0.45028,-1.0687 1,-1 z"
       id="rect4340"
       inkscape:connector-curvature="0"
       sodipodi:nodetypes="cscssccssssc" />
    <path
       sodipodi:nodetypes="sssssccs"
       inkscape:connector-curvature="0"
       id="path4349"
       d="m 162,1016.3623 c 1,0 5.25126,1.0001 8,1 1,0 2,-0.108 2,1 l 0,1 c 0,1.108 -0.892,1 -2,1 l -10,0 0,-3 c 0,-1.108 0.89201,-1 2,-1 z"
       style="fill:#0091b6;fill-opacity:1;fill-rule:nonzero;stroke:none" />
    <path
       style="fill:#0091b6;fill-opacity:1;fill-rule:nonzero;stroke:none"
       d="m 162,1028.3623 c 1,0 5.25126,-1.9999 8,-2 1,0 2,0 2,-1 0,-1 -1,-1 -2,-1 l -10,0 0,3 c 0,1.108 0.89201,1 2,1 z"
       id="path4351"
       inkscape:connector-curvature="0"
       sodipodi:nodetypes="sccsccs" />
    <path
       sodipodi:nodetypes="cscssccssssc"
       inkscape:connector-curvature="0"
       id="path4376"
       d="m 161,999.36231 11,0 c 1.70776,0 1.12111,1.99999 7,1.99999 l 2,0 c 1,0 2,0 2,1 0,1 -1,1 -2,1 l -2,0 c -5.93203,0 -5.31871,2 -7,2 l -11,0 c -0.554,0 -1,-0.446 -1,-1 l 0,-4 c 0,-0.554 0.45028,-1.06869 1,-0.99999 z"
       style="fill:#ff2905;fill-opacity:1;fill-rule:nonzero;stroke:none" />
    <path
       style="fill:#0091b6;fill-opacity:1;fill-rule:nonzero;stroke:none"
       d="m 162,996.36232 c 1,0 5.25126,1.00011 8,1.00001 1,0 2,-0.108 2,0.99998 l 0,1 c 0,1.10799 -0.892,0.99999 -2,0.99999 l -10,0 0,-2.99997 c 0,-1.10801 0.89201,-1.00001 2,-1.00001 z"
       id="path4378"
       inkscape:connector-curvature="0"
       sodipodi:nodetypes="sssssccs" />
    <path
       sodipodi:nodetypes="sccsccs"
       inkscape:connector-curvature="0"
       id="path4380"
       d="m 162,1008.3623 c 1,0 5.25126,-1.9999 8,-2 1,0 2,0 2,-1 0,-1 -1,-1 -2,-1 l -10,0 0,3 c 0,1.108 0.89201,1 2,1 z"
       style="fill:#0091b6;fill-opacity:1;fill-rule:nonzero;stroke:none" />
    <rect
       y="20"
       x="-924.36218"
       height="72"
       width="12.000003"
       id="rect3070"
       style="fill:#00627b;fill-opacity:1;fill-rule:nonzero;stroke:none"
       rx="2"
       ry="2"
       transform="matrix(0,-1,1,0,0,0)" />
    <path
       style="fill:#00a0c9;fill-opacity:1;fill-rule:nonzero;stroke:none"
       d="m 48,906.36218 0,-2 c 0,-1.108 0.892,-2 2,-2 l 12,0 c 1.108,0 2,0.892 2,2 l 0,2 0,6 -16,0 z"
       id="rect4318"
       inkscape:connector-curvature="0"
       sodipodi:nodetypes="csssscccc" />
    <path
       sodipodi:nodetypes="csssscccc"
       inkscape:connector-curvature="0"
       id="path3034"
       d="m 28,906.36218 0,-2 c 0,-1.108 0.892,-2 2,-2 l 12,0 c 1.108,0 2,0.892 2,2 l 0,2 0,6 -16,0 z"
       style="fill:#00a0c9;fill-opacity:1;fill-rule:nonzero;stroke:none" />
  </g>
</svg>
