<?xml version="1.0" encoding="UTF-8" standalone="no"?>
<!-- Created with Inkscape (http://www.inkscape.org/) -->

<svg
   xmlns:dc="http://purl.org/dc/elements/1.1/"
   xmlns:cc="http://creativecommons.org/ns#"
   xmlns:rdf="http://www.w3.org/1999/02/22-rdf-syntax-ns#"
   xmlns:svg="http://www.w3.org/2000/svg"
   xmlns="http://www.w3.org/2000/svg"
   xmlns:sodipodi="http://sodipodi.sourceforge.net/DTD/sodipodi-0.dtd"
   xmlns:inkscape="http://www.inkscape.org/namespaces/inkscape"
   width="240"
   height="160"
   id="svg2"
   version="1.1"
   inkscape:version="0.48.2 r9819"
   sodipodi:docname="vectowcol-beam_l2.svg">
  <defs
     id="defs4">
    <inkscape:perspective
       sodipodi:type="inkscape:persp3d"
       inkscape:vp_x="0 : 526.18109 : 1"
       inkscape:vp_y="0 : 1000 : 0"
       inkscape:vp_z="744.09448 : 526.18109 : 1"
       inkscape:persp3d-origin="372.04724 : 350.78739 : 1"
       id="perspective10" />
  </defs>
  <sodipodi:namedview
     id="base"
     pagecolor="#484848"
     bordercolor="#000000"
     borderopacity="0.38823529"
     inkscape:pageopacity="1"
     inkscape:pageshadow="2"
     inkscape:zoom="2.8284271"
     inkscape:cx="73.494868"
     inkscape:cy="3.6538039"
     inkscape:document-units="px"
     inkscape:current-layer="layer1"
     showgrid="true"
     inkscape:showpageshadow="false"
     showborder="true"
     inkscape:window-width="960"
     inkscape:window-height="1181"
     inkscape:window-x="0"
     inkscape:window-y="19"
     inkscape:window-maximized="0"
     showguides="true"
     inkscape:guide-bbox="true">
    <inkscape:grid
       type="xygrid"
       id="grid2816"
       empspacing="4"
       visible="true"
       enabled="true"
       snapvisiblegridlinesonly="true"
       color="#e8e8ff"
       opacity="0.25098039"
       empcolor="#259873"
       empopacity="0.22352941"
       spacingx="1px"
       spacingy="1px" />
  </sodipodi:namedview>
  <metadata
     id="metadata7">
    <rdf:RDF>
      <cc:Work
         rdf:about="">
        <dc:format>image/svg+xml</dc:format>
        <dc:type
           rdf:resource="http://purl.org/dc/dcmitype/StillImage" />
        <dc:title />
      </cc:Work>
    </rdf:RDF>
  </metadata>
  <g
     inkscape:label="Layer 1"
     inkscape:groupmode="layer"
     id="layer1"
     transform="translate(0,-892.36218)">
    <path
       style="fill:#ff7e1b;fill-opacity:1;fill-rule:nonzero;stroke:none"
       d="m 41.714286,948.36218 36.571428,0 c 0.949715,0 1.714286,0.76457 1.714286,1.71429 l 0,38.28571 c 0,0.94972 -7.050285,8 -8,8 l -24,0 c -0.949715,0 -8,-7.05028 -8,-8 l 0,-38.28571 c 0,-0.94972 0.764571,-1.71429 1.714286,-1.71429 z"
       id="rect3098"
       inkscape:connector-curvature="0"
       sodipodi:nodetypes="sssssssss" />
    <path
       style="fill:#f11d10;fill-opacity:1;fill-rule:nonzero;stroke:none"
       d="m 40,980.36218 -8,8 -8,40.00002 0,8 72,0 0,-8 -8,-40.00002 -8,-8 -12,0 -4,-4 -8,0 -4,4 z"
       id="rect3061"
       inkscape:connector-curvature="0"
       sodipodi:nodetypes="ccccccccccccc" />
    <rect
       style="fill:#f11d10;fill-opacity:1;fill-rule:nonzero;stroke:none"
       id="rect3959"
       width="12"
       height="12"
       x="228"
       y="36"
       transform="translate(0,892.36218)"
       ry="2" />
    <rect
       style="fill:#f11d10;fill-opacity:1;fill-rule:nonzero;stroke:none"
       id="rect3063"
       width="232"
       height="56"
       x="0"
       y="916.36218"
       ry="4" />
    <rect
       style="fill:#07a2ff;fill-opacity:1;fill-rule:nonzero;stroke:none"
       id="rect3933"
       width="8"
       height="24"
       x="-435.93237"
       y="788.12878"
       transform="matrix(0.8660254,-0.5,0.5,0.8660254,0,0)"
       rx="2"
       ry="2" />
    <rect
       style="fill:#008e54;fill-opacity:1;fill-rule:nonzero;stroke:none"
       id="rect3068"
       width="16"
       height="24"
       x="-439.93246"
       y="792.12878"
       rx="2"
       ry="2"
       transform="matrix(0.8660254,-0.5,0.5,0.8660254,0,0)" />
    <rect
       style="fill:#f11d10;fill-opacity:1;fill-rule:nonzero;stroke:none"
       id="rect3961"
       width="12"
       height="12"
       x="228"
       y="56"
       transform="translate(0,892.36218)"
       ry="2" />
    <rect
       style="fill:#ff7e1b;fill-opacity:1;fill-rule:nonzero;stroke:none"
       id="rect3074"
       width="232"
       height="24"
       x="0"
       y="932.36218" />
    <rect
       style="fill:#ff7e1b;fill-opacity:1;fill-rule:nonzero;stroke:none"
       id="rect3982"
       width="8"
       height="3.9999974"
       x="228"
       y="952.36218"
       ry="2" />
    <rect
       ry="2"
       y="932.36218"
       x="228"
       height="3.9999974"
       width="8"
       id="rect3980"
       style="fill:#ff7e1b;fill-opacity:1;fill-rule:nonzero;stroke:none" />
    <path
       style="fill:#006e41;fill-opacity:1;fill-rule:nonzero;stroke:none"
       d="M 224 24 L 224 26 L 224 78 L 224 80 L 230 80 C 231.108 80 232 79.108 232 78 L 232 26 C 232 24.892 231.108 24 230 24 L 224 24 z "
       transform="translate(0,892.36218)"
       id="rect3076" />
    <rect
       style="fill:#008e54;fill-opacity:1;fill-rule:nonzero;stroke:none"
       id="rect3078"
       width="8"
       height="56"
       x="200"
       y="916.36218" />
    <rect
       y="916.36218"
       x="176"
       height="56"
       width="8"
       id="rect3080"
       style="fill:#00ac66;fill-opacity:1;fill-rule:nonzero;stroke:none" />
    <rect
       y="916.36218"
       x="152"
       height="56"
       width="8"
       id="rect3082"
       style="fill:#00d37e;fill-opacity:1;fill-rule:nonzero;stroke:none" />
    <rect
       style="fill:#00dd83;fill-opacity:1;fill-rule:nonzero;stroke:none"
       id="rect3084"
       width="8"
       height="56"
       x="128"
       y="916.36218" />
    <rect
       style="fill:#00eb8c;fill-opacity:1;fill-rule:nonzero;stroke:none"
       id="rect3086"
       width="8"
       height="56"
       x="104"
       y="916.36218" />
    <rect
       ry="2"
       rx="2"
       y="800.12878"
       x="-415.14777"
       height="24"
       width="8"
       id="rect3935"
       style="fill:#07a2ff;fill-opacity:1;fill-rule:nonzero;stroke:none"
       transform="matrix(0.8660254,-0.5,0.5,0.8660254,0,0)" />
    <rect
       y="804.12878"
       x="-419.14786"
       height="24"
       width="16"
       id="rect3070"
       style="fill:#00ac66;fill-opacity:1;fill-rule:nonzero;stroke:none"
       rx="2"
       ry="2"
       transform="matrix(0.8660254,-0.5,0.5,0.8660254,0,0)" />
    <rect
       style="fill:#ff7e1b;fill-opacity:1;fill-rule:nonzero;stroke:none"
       id="rect3100"
       width="88"
       height="16"
       x="16"
       y="1036.3622"
       ry="2" />
    <path
       style="fill:#00d37e;fill-opacity:1;fill-rule:nonzero;stroke:none"
       d="m 60,982.70593 -4,1.65625 -1.65625,4 1.65625,4 4,1.65625 4,-1.65625 1.65625,-4 -1.65625,-4 z"
       id="rect3926"
       inkscape:connector-curvature="0"
       sodipodi:nodetypes="ccccccccc" />
    <path
       id="path3984"
       d="m 8,916.36218 0,2 0,52 0,2 -6,0 c -1.108,0 -2,-0.892 -2,-2 l 0,-52 c 0,-1.108 0.892,-2 2,-2 l 6,0 z"
       style="fill:#006e41;fill-opacity:1;fill-rule:nonzero;stroke:none"
       inkscape:connector-curvature="0" />
    <rect
       y="1032.3622"
       x="20"
       height="4"
       width="8"
       id="rect4003"
       style="fill:#008e54;fill-opacity:1;fill-rule:nonzero;stroke:none" />
    <rect
       style="fill:#00ac66;fill-opacity:1;fill-rule:nonzero;stroke:none"
       id="rect4005"
       width="8"
       height="4"
       x="32"
       y="1032.3622" />
    <rect
       y="1032.3622"
       x="44"
       height="4"
       width="8"
       id="rect4007"
       style="fill:#00d37e;fill-opacity:1;fill-rule:nonzero;stroke:none" />
    <rect
       style="fill:#00eb8c;fill-opacity:1;fill-rule:nonzero;stroke:none"
       id="rect4009"
       width="8"
       height="4"
       x="56"
       y="1032.3622" />
    <rect
       style="fill:#008e54;fill-opacity:1;fill-rule:nonzero;stroke:none"
       id="rect4011"
       width="8"
       height="4"
       x="-100"
       y="1032.3622"
       transform="scale(-1,1)" />
    <rect
       y="1032.3622"
       x="-88"
       height="4"
       width="8"
       id="rect4013"
       style="fill:#00ac66;fill-opacity:1;fill-rule:nonzero;stroke:none"
       transform="scale(-1,1)" />
    <rect
       style="fill:#00d37e;fill-opacity:1;fill-rule:nonzero;stroke:none"
       id="rect4015"
       width="8"
       height="4"
       x="-76"
       y="1032.3622"
       transform="scale(-1,1)" />
    <g
       id="g4087"
       transform="translate(-8,8)">
      <rect
         transform="translate(0,892.36218)"
         y="104"
         x="152"
         height="8"
         width="56"
         id="rect4077"
         style="fill:#89ffcf;fill-opacity:1;fill-rule:nonzero;stroke:none" />
      <rect
         transform="translate(0,892.36218)"
         y="105"
         x="152"
         height="1"
         width="56"
         id="rect4079"
         style="fill:#5dffbd;fill-opacity:1;fill-rule:nonzero;stroke:none" />
      <rect
         transform="translate(0,892.36218)"
         y="109"
         x="152"
         height="1"
         width="56"
         id="rect4081"
         style="fill:#73ffc6;fill-opacity:1;fill-rule:nonzero;stroke:none" />
      <rect
         transform="translate(0,892.36218)"
         y="107"
         x="152"
         height="1"
         width="56"
         id="rect4083"
         style="fill:#acffdd;fill-opacity:1;fill-rule:nonzero;stroke:none" />
      <rect
         transform="translate(0,892.36218)"
         y="111"
         x="152"
         height="1"
         width="56"
         id="rect4085"
         style="fill:#42ffb2;fill-opacity:1;fill-rule:nonzero;stroke:none" />
    </g>
    <g
       transform="translate(-8,28)"
       id="g4094">
      <rect
         style="fill:#89ffcf;fill-opacity:1;fill-rule:nonzero;stroke:none"
         id="rect4096"
         width="56"
         height="8"
         x="152"
         y="104"
         transform="translate(0,892.36218)" />
      <rect
         style="fill:#5dffbd;fill-opacity:1;fill-rule:nonzero;stroke:none"
         id="rect4098"
         width="56"
         height="1"
         x="152"
         y="105"
         transform="translate(0,892.36218)" />
      <rect
         style="fill:#73ffc6;fill-opacity:1;fill-rule:nonzero;stroke:none"
         id="rect4100"
         width="56"
         height="1"
         x="152"
         y="109"
         transform="translate(0,892.36218)" />
      <rect
         style="fill:#acffdd;fill-opacity:1;fill-rule:nonzero;stroke:none"
         id="rect4102"
         width="56"
         height="1"
         x="152"
         y="107"
         transform="translate(0,892.36218)" />
      <rect
         style="fill:#42ffb2;fill-opacity:1;fill-rule:nonzero;stroke:none"
         id="rect4104"
         width="56"
         height="1"
         x="152"
         y="111"
         transform="translate(0,892.36218)" />
    </g>
  </g>
</svg>
